<?xml version="1.0" encoding="utf-8"?>
<!-- Generator: Adobe Illustrator 16.0.0, SVG Export Plug-In . SVG Version: 6.00 Build 0)  -->
<!DOCTYPE svg PUBLIC "-//W3C//DTD SVG 1.1//EN" "http://www.w3.org/Graphics/SVG/1.1/DTD/svg11.dtd">
<svg version="1.1" id="Layer_1" xmlns="http://www.w3.org/2000/svg" xmlns:xlink="http://www.w3.org/1999/xlink" x="0px" y="0px"
	 width="295px" height="296.94px" viewBox="-21 -56.5 295 296.94" enable-background="new -21 -56.5 295 296.94"
	 xml:space="preserve">
<g>
	<g>
		<path fill="#BE6E94" d="M259,143c-2.717,6.479-6.312,11.952-14.492,12.416c4.672-4.273,9.553-8.32,9.34-15.375
			c1.668,0.591,3.029,2.818,5.152,0.959C259,141.667,259,142.333,259,143z"/>
		<path fill="#B86C91" d="M191.968,81.091c-0.937,3.203-3.489,3.055-6.038,2.907c-2.975-0.171-4.189,0.537-4.338,4.176
			c-0.109,2.668-0.018,7.013-4.537,7.81c0.982-3.485,1.729-7.06,3-10.436C182.26,79.699,187.504,81.289,191.968,81.091z"/>
		<path fill="#AD6E8E" d="M160.043,90.036c-4.585,0.231-9.549-1.215-13.201,3.175c-0.326,0.392-0.764-0.717-0.877-1.317
			C148.912,88.467,154.75,87.696,160.043,90.036z"/>
		<path fill="#A06E89" d="M83.026,88.803c4.963-1.352,9.931-1.266,14.904-0.054C92.963,89.22,87.995,89.201,83.026,88.803z"/>
		<path fill="#B86C91" d="M194.657,89.88c-1.329-2.624-0.438-5.402-0.564-8.11c2.235,0.205,2.771,1.382,2.041,3.406
			C195.577,86.721,195.145,88.311,194.657,89.88z"/>
		<path fill="#A3748B" d="M162.688,36.939c-1.117-3.275-1.088-6.551-0.011-9.828C163.234,30.387,163.266,33.662,162.688,36.939z"/>
		<path fill="#CC6598" d="M235.745,113.291c-10.841-2.811-21.708-2.338-32.136,1.959c-3.283,1.354-4.758,0.924-6.42-2.305
			c-3.836-7.453-4.664-15.051-2.532-23.065c-0.731-2.666,1.509-5.538-0.563-8.11c-0.542-0.75-1.295-0.838-2.126-0.679
			c-1.786,1.375-3.896,1.574-6.038,1.665c-3.154,0.133-4.99,1.146-5.26,4.912c-0.211,2.934-1.1,6.119-3.615,8.315
			c-4.639,8.265-8.603,16.934-14.356,24.951c-4.86-8.291-5.173-16.453-2.509-24.875c0.648-2.054,1.687-4.056-0.146-6.022
			c-4.926-1.144-9.661-0.848-14.078,1.857c-7.275,20.189-16.498,39.488-26.295,58.552c-1.2-3.002-0.825-5.777-0.163-8.49
			c1.73-7.088,3.578-14.146,5.362-21.223c0.86-3.409,0.564-7.533-3.458-7.127c-5.6,0.565-4.213-2.596-4.314-5.398
			c-0.299-8.282-5.131-11.714-12.968-9.042c-6.518,2.224-11.346,6.826-15.826,11.813c-1.341,1.492-2.636,2.97-4.428,3.955
			c-6.993,3.846-13.981,7.701-20.943,11.604c-1.556,0.873-2.708,1.319-4.295-0.28c-7.644-7.701-16.899-13.479-25.018-20.605
			C25.172,98.239,18.1,90.019,19.946,77.409c1.244-8.499,5.501-15.34,11.343-21.153C51.768,35.879,76.604,23.297,104.63,17.28
			c11.706-2.513,23.806-3.091,35.257,2.216c6.385,2.957,9.731,7.803,9.176,15.034c-0.852,11.061-7.021,19.206-14.817,26.242
			c-13.582,12.259-29.868,18.461-47.935,19.816c-8.103,0.608-15.907-1.079-22.331-6.689c-1.058-0.925-1.944-2.935-3.555-1.604
			c-1.34,1.106-0.125,2.757,0.433,4.113c0.852,2.068,2.423,3.564,4.037,5.004c5.165,4.603,11.348,6.742,18.132,7.39
			c4.966-0.562,9.935-0.441,14.904-0.054c9.308-0.965,18.434-2.886,26.94-6.79c19.639-9.016,33.674-22.906,37.817-45.02
			c-0.336-3.276-0.318-6.552-0.012-9.828c-1.664-12.358-9.973-18.861-20.691-22.921C137.154,2.361,132.005,1.371,127,0
			c-6.333,0-12.667,0-19,0c-6.489,1.125-13.18,0.892-19.518,3.066c-26.989,9.26-52.288,21.313-72.367,42.43
			C8.304,53.71,1.979,62.578,0,74c0,3.333,0,6.667,0,10c1.339,6.89,4.779,12.642,9.492,17.741
			c6.587,7.126,13.894,13.393,21.985,18.751c4.582,3.035,8.95,6.375,13.47,9.497c2.766,1.911,2.795,3.233-0.307,4.868
			c-7.229,3.811-14.188,8.123-20.498,13.312c-6.297,5.179-12.422,10.588-15.241,18.72C4.196,180.458,9.561,191.693,22,194
			c3.667,0,7.333,0,11,0c11.513-0.915,20.282-6.682,27.247-15.535c9.112-11.583,10.986-24.779,7.857-38.759
			c-0.868-3.877-0.239-6.072,3.333-7.476c1.761-0.691,3.165-2.304,5.312-2.394c0.217,2.505-0.985,4.563-0.486,6.741
			c0.626,5.615,0.492,11.24,0.102,16.869c0.143,4.66,2.081,8.744,4.372,12.609c4.068,6.86,13.308,7.172,17.923,0.685
			c2.986-4.198,5.132-8.853,7.304-14.332c-0.511,3.862,0.058,6.942,1.186,9.879c2.299,5.981,7.31,7.337,12.287,3.38
			c2.912-2.314,5.074-5.271,6.844-8.51c5.348-9.786,10.736-19.545,15.105-29.838c1.645-3.87,3.275-7.791,5.502-12.719
			c1.094,5.369,2.264,9.428,4.368,12.99c2.229,3.771,1.558,6.518-0.946,9.924c-4.244,5.777-9.97,10.312-13.633,16.502
			c-3.412,5.769-1.234,10.027,5.457,10.114c9.997,0.13,18.528-3.573,25.029-11.349c1.604-1.918,2.786-4.164,2.602-6.842
			c-0.639-3.19-0.556-6.393-0.16-9.603c0.237-2.799-2.232-5.635-0.545-8.253c4.348-6.749,8.072-13.875,12.297-21.107
			c1.875,3.498,1.606,7.142,4.012,9.695c2.309,1.758,4.99,3.404,2.047,6.75c-2.105,1.876-4.171,3.812-6.059,5.918
			c-4.187,4.672-7.219,9.987-8.252,16.235c-1.017,6.146,2.865,10.746,8.389,10.194c14.609-1.457,24.73-13.844,23.154-28.494
			c-0.232-2.155,0.104-3.51,2.356-4.144c10.263-2.881,20.442-2.431,30.431,1.042c7.902,2.749,12.805,8.621,15.621,16.355
			c1.891,1.351,3.698,3.647,5.944,0.465c0-1.667,0-3.333,0-5C255.607,123.967,247.693,116.389,235.745,113.291z M36.113,179.789
			c-3.641,1.301-7.717,2.529-10.818-0.53c-3.264-3.22-1.801-7.522-0.587-11.214c1.689-5.136,5.084-9.354,9.149-12.811
			c5.55-4.724,11.474-9,17.71-12.797c4.843-2.948,5.146-2.74,5.536,3.086c0.077,1.158,0.134,2.318,0.172,2.979
			C57.413,162.488,48.647,175.309,36.113,179.789z M108.135,117.547c-2.985,10.905-7.123,21.41-11.758,31.717
			c-0.61,1.356-1.384,2.651-2.185,3.909c-0.616,0.968-1.288,2.241-2.579,2.082c-1.526-0.188-1.984-1.784-2.269-2.979
			c-0.614-2.57-0.889-5.224-1.174-7.032c0.682-12.295,4.524-22.531,11.702-31.5c0.104-0.13,0.199-0.271,0.321-0.382
			c2.335-2.098,5.045-5.351,7.993-3.807C111.421,111.248,108.852,114.93,108.135,117.547z M145.133,156.023
			c3.963-4.541,7.926-9.082,11.889-13.623C156.604,149.836,151.619,153.562,145.133,156.023z M181.934,147.754
			c0.494-7.477,4.558-12.623,9.519-17.646C194.479,137.973,190.635,145.076,181.934,147.754z"/>
		<path fill="#B06B8B" d="M77.237,153.918c-1.348-5.953-0.777-11.904,0.025-17.855C78.425,142.016,78.487,147.968,77.237,153.918z"
			/>
		<path fill="#B27495" d="M188.812,123.943c0.01-2.985-2.543-5.062-2.828-7.942C189.74,117.646,191.454,120.021,188.812,123.943z"/>
		<path fill="#AA6A87" d="M168.758,136.034c0.578,3.3,0.725,6.602,0.057,9.909C167.482,142.646,167.559,139.344,168.758,136.034z"/>
	</g>
</g>
</svg>
